<svg width="200" height="200" viewBox="0 0 200 200" fill="none" xmlns="http://www.w3.org/2000/svg">
<rect width="200" height="200" fill="#E1E1E1"/>
<path d="M77.3724 78.9091V92H75.7872V78.9091H77.3724ZM80.3463 92V82.1818H81.8037V83.7159H81.9315C82.1361 83.1918 82.4663 82.7848 82.9223 82.495C83.3783 82.201 83.9259 82.054 84.5651 82.054C85.2128 82.054 85.7518 82.201 86.1822 82.495C86.6169 82.7848 86.9557 83.1918 87.1986 83.7159H87.3009C87.5523 83.2088 87.9294 82.8061 88.4322 82.5078C88.9351 82.2053 89.5381 82.054 90.2412 82.054C91.119 82.054 91.8371 82.3288 92.3953 82.8786C92.9536 83.424 93.2327 84.2741 93.2327 85.429V92H91.7241V85.429C91.7241 84.7045 91.526 84.1868 91.1297 83.8757C90.7334 83.5646 90.2668 83.4091 89.7298 83.4091C89.0395 83.4091 88.5047 83.6179 88.1254 84.0355C87.7462 84.4489 87.5565 84.973 87.5565 85.608V92H86.0224V85.2756C86.0224 84.7173 85.8413 84.2678 85.4791 83.9268C85.1169 83.5817 84.6503 83.4091 84.0793 83.4091C83.6872 83.4091 83.3207 83.5135 82.9798 83.7223C82.6432 83.9311 82.3705 84.2209 82.1616 84.5916C81.9571 84.9581 81.8548 85.3821 81.8548 85.8636V92H80.3463ZM98.88 92.2301C98.2579 92.2301 97.6933 92.1129 97.1862 91.8786C96.679 91.6399 96.2764 91.2969 95.9781 90.8494C95.6798 90.3977 95.5306 89.8523 95.5306 89.2131C95.5306 88.6506 95.6414 88.1946 95.863 87.8452C96.0846 87.4915 96.3808 87.2145 96.7515 87.0142C97.1222 86.8139 97.5313 86.6648 97.9788 86.5668C98.4305 86.4645 98.8843 86.3835 99.3403 86.3239C99.9369 86.2472 100.421 86.1896 100.791 86.1513C101.166 86.1087 101.439 86.0384 101.609 85.9403C101.784 85.8423 101.872 85.6719 101.872 85.429V85.3778C101.872 84.7472 101.699 84.2571 101.354 83.9077C101.013 83.5582 100.495 83.3835 99.8005 83.3835C99.0803 83.3835 98.5157 83.5412 98.1066 83.8565C97.6975 84.1719 97.4099 84.5085 97.2437 84.8665L95.8119 84.3551C96.0675 83.7585 96.4085 83.294 96.8346 82.9616C97.265 82.625 97.7337 82.3906 98.2408 82.2585C98.7522 82.1222 99.255 82.054 99.7494 82.054C100.065 82.054 100.427 82.0923 100.836 82.169C101.249 82.2415 101.648 82.3928 102.031 82.6229C102.419 82.853 102.741 83.2003 102.997 83.6648C103.252 84.1293 103.38 84.7514 103.38 85.5312V92H101.872V90.6705H101.795C101.693 90.8835 101.522 91.1115 101.283 91.3544C101.045 91.5973 100.727 91.804 100.331 91.9744C99.9347 92.1449 99.4511 92.2301 98.88 92.2301ZM99.1102 90.875C99.7067 90.875 100.21 90.7578 100.619 90.5234C101.032 90.2891 101.343 89.9865 101.552 89.6158C101.765 89.245 101.872 88.8551 101.872 88.446V87.0653C101.808 87.142 101.667 87.2124 101.45 87.2763C101.237 87.3359 100.989 87.3892 100.708 87.4361C100.431 87.4787 100.161 87.517 99.8964 87.5511C99.6364 87.581 99.4255 87.6065 99.2636 87.6278C98.8715 87.679 98.505 87.7621 98.1641 87.8771C97.8275 87.9879 97.5548 88.1562 97.346 88.3821C97.1414 88.6037 97.0391 88.9062 97.0391 89.2898C97.0391 89.8139 97.233 90.2102 97.6208 90.4787C98.0129 90.7429 98.5093 90.875 99.1102 90.875ZM110.096 95.8864C109.368 95.8864 108.741 95.7926 108.217 95.6051C107.693 95.4219 107.256 95.179 106.907 94.8764C106.562 94.5781 106.287 94.2585 106.082 93.9176L107.284 93.0739C107.42 93.2528 107.593 93.4574 107.802 93.6875C108.011 93.9219 108.296 94.1243 108.658 94.2947C109.025 94.4695 109.504 94.5568 110.096 94.5568C110.889 94.5568 111.543 94.3651 112.059 93.9815C112.574 93.598 112.832 92.9972 112.832 92.179V90.1847H112.704C112.594 90.3636 112.436 90.5852 112.231 90.8494C112.031 91.1094 111.741 91.3416 111.362 91.5462C110.987 91.7464 110.48 91.8466 109.841 91.8466C109.048 91.8466 108.337 91.6591 107.706 91.2841C107.079 90.9091 106.583 90.3636 106.217 89.6477C105.854 88.9318 105.673 88.0625 105.673 87.0398C105.673 86.0341 105.85 85.1584 106.204 84.4126C106.557 83.6626 107.05 83.0831 107.68 82.674C108.311 82.2607 109.04 82.054 109.866 82.054C110.506 82.054 111.013 82.1605 111.388 82.3736C111.767 82.5824 112.057 82.821 112.257 83.0895C112.462 83.3537 112.619 83.571 112.73 83.7415H112.883V82.1818H114.341V92.2812C114.341 93.125 114.149 93.8111 113.766 94.3395C113.386 94.8722 112.875 95.2621 112.231 95.5092C111.592 95.7607 110.881 95.8864 110.096 95.8864ZM110.045 90.4915C110.65 90.4915 111.162 90.353 111.579 90.076C111.997 89.799 112.315 89.4006 112.532 88.8807C112.749 88.3608 112.858 87.7386 112.858 87.0142C112.858 86.3068 112.751 85.6825 112.538 85.1413C112.325 84.6001 112.01 84.1761 111.592 83.8693C111.175 83.5625 110.659 83.4091 110.045 83.4091C109.406 83.4091 108.873 83.571 108.447 83.8949C108.025 84.2187 107.708 84.6534 107.495 85.1989C107.286 85.7443 107.182 86.3494 107.182 87.0142C107.182 87.696 107.288 88.299 107.501 88.8232C107.719 89.343 108.038 89.7521 108.46 90.0504C108.886 90.3445 109.415 90.4915 110.045 90.4915ZM121.219 92.2045C120.273 92.2045 119.457 91.9957 118.77 91.5781C118.089 91.1562 117.562 90.5682 117.192 89.8139C116.825 89.0554 116.642 88.1733 116.642 87.1676C116.642 86.1619 116.825 85.2756 117.192 84.5085C117.562 83.7372 118.078 83.1364 118.739 82.706C119.403 82.2713 120.179 82.054 121.065 82.054C121.577 82.054 122.082 82.1392 122.58 82.3097C123.079 82.4801 123.533 82.7571 123.942 83.1406C124.351 83.5199 124.677 84.0227 124.92 84.6491C125.163 85.2756 125.284 86.0469 125.284 86.9631V87.6023H117.716V86.2983H123.75C123.75 85.7443 123.639 85.25 123.418 84.8153C123.2 84.3807 122.889 84.0376 122.484 83.7862C122.084 83.5348 121.611 83.4091 121.065 83.4091C120.464 83.4091 119.944 83.5582 119.506 83.8565C119.071 84.1506 118.736 84.5341 118.502 85.0071C118.268 85.4801 118.15 85.9872 118.15 86.5284V87.3977C118.15 88.1392 118.278 88.7678 118.534 89.2834C118.794 89.7947 119.154 90.1847 119.614 90.4531C120.074 90.7173 120.609 90.8494 121.219 90.8494C121.615 90.8494 121.973 90.794 122.293 90.6832C122.616 90.5682 122.895 90.3977 123.13 90.1719C123.364 89.9418 123.545 89.6562 123.673 89.3153L125.131 89.7244C124.977 90.2188 124.719 90.6534 124.357 91.0284C123.995 91.3991 123.547 91.6889 123.015 91.8977C122.482 92.1023 121.883 92.2045 121.219 92.2045ZM51.5997 114V100.909H56.023C57.05 100.909 57.8895 101.094 58.5414 101.465C59.1977 101.832 59.6835 102.328 59.9988 102.955C60.3142 103.581 60.4718 104.28 60.4718 105.051C60.4718 105.822 60.3142 106.523 59.9988 107.154C59.6877 107.785 59.2062 108.288 58.5542 108.663C57.9022 109.033 57.067 109.219 56.0485 109.219H52.8781V107.812H55.9974C56.7005 107.812 57.2652 107.691 57.6913 107.448C58.1174 107.205 58.4264 106.877 58.6181 106.464C58.8142 106.046 58.9122 105.575 58.9122 105.051C58.9122 104.527 58.8142 104.058 58.6181 103.645C58.4264 103.232 58.1153 102.908 57.6849 102.673C57.2545 102.435 56.6835 102.315 55.9718 102.315H53.1849V114H51.5997ZM64.3294 100.909V114H62.8209V100.909H64.3294ZM69.9816 114.23C69.3594 114.23 68.7948 114.113 68.2877 113.879C67.7806 113.64 67.3779 113.297 67.0796 112.849C66.7813 112.398 66.6322 111.852 66.6322 111.213C66.6322 110.651 66.743 110.195 66.9646 109.845C67.1862 109.491 67.4823 109.214 67.8531 109.014C68.2238 108.814 68.6329 108.665 69.0803 108.567C69.532 108.464 69.9859 108.384 70.4418 108.324C71.0384 108.247 71.5221 108.19 71.8928 108.151C72.2678 108.109 72.5406 108.038 72.711 107.94C72.8857 107.842 72.9731 107.672 72.9731 107.429V107.378C72.9731 106.747 72.8005 106.257 72.4553 105.908C72.1144 105.558 71.5967 105.384 70.9021 105.384C70.1819 105.384 69.6173 105.541 69.2082 105.857C68.7991 106.172 68.5114 106.509 68.3452 106.866L66.9134 106.355C67.1691 105.759 67.51 105.294 67.9362 104.962C68.3665 104.625 68.8353 104.391 69.3424 104.259C69.8538 104.122 70.3566 104.054 70.8509 104.054C71.1663 104.054 71.5285 104.092 71.9376 104.169C72.3509 104.241 72.7494 104.393 73.1329 104.623C73.5207 104.853 73.8424 105.2 74.0981 105.665C74.3538 106.129 74.4816 106.751 74.4816 107.531V114H72.9731V112.67H72.8964C72.7941 112.884 72.6237 113.112 72.385 113.354C72.1464 113.597 71.8289 113.804 71.4326 113.974C71.0363 114.145 70.5526 114.23 69.9816 114.23ZM70.2117 112.875C70.8083 112.875 71.3112 112.758 71.7202 112.523C72.1336 112.289 72.4447 111.987 72.6535 111.616C72.8665 111.245 72.9731 110.855 72.9731 110.446V109.065C72.9092 109.142 72.7685 109.212 72.5512 109.276C72.3381 109.336 72.091 109.389 71.8097 109.436C71.5327 109.479 71.2621 109.517 70.9979 109.551C70.738 109.581 70.5271 109.607 70.3651 109.628C69.9731 109.679 69.6066 109.762 69.2657 109.877C68.929 109.988 68.6563 110.156 68.4475 110.382C68.243 110.604 68.1407 110.906 68.1407 111.29C68.1407 111.814 68.3346 112.21 68.7224 112.479C69.1144 112.743 69.6109 112.875 70.2117 112.875ZM81.2236 114.205C80.3032 114.205 79.5105 113.987 78.8458 113.553C78.181 113.118 77.6696 112.519 77.3117 111.756C76.9537 110.994 76.7748 110.122 76.7748 109.142C76.7748 108.145 76.958 107.265 77.3245 106.502C77.6952 105.735 78.2108 105.136 78.8713 104.706C79.5361 104.271 80.3117 104.054 81.198 104.054C81.8884 104.054 82.5105 104.182 83.0645 104.438C83.6185 104.693 84.0723 105.051 84.426 105.511C84.7797 105.972 84.9992 106.509 85.0844 107.122H83.5759C83.4608 106.675 83.2052 106.278 82.8088 105.933C82.4168 105.584 81.8884 105.409 81.2236 105.409C80.6355 105.409 80.1199 105.562 79.6767 105.869C79.2378 106.172 78.8948 106.6 78.6476 107.154C78.4047 107.704 78.2833 108.349 78.2833 109.091C78.2833 109.849 78.4026 110.51 78.6412 111.072C78.8841 111.635 79.225 112.072 79.664 112.383C80.1071 112.694 80.627 112.849 81.2236 112.849C81.6157 112.849 81.9715 112.781 82.2911 112.645C82.6107 112.509 82.8813 112.312 83.1029 112.057C83.3245 111.801 83.4821 111.494 83.5759 111.136H85.0844C84.9992 111.716 84.7882 112.238 84.4516 112.702C84.1192 113.163 83.6782 113.529 83.1284 113.802C82.583 114.07 81.948 114.205 81.2236 114.205ZM91.4061 114.205C90.4601 114.205 89.6441 113.996 88.958 113.578C88.2762 113.156 87.7499 112.568 87.3792 111.814C87.0127 111.055 86.8294 110.173 86.8294 109.168C86.8294 108.162 87.0127 107.276 87.3792 106.509C87.7499 105.737 88.2655 105.136 88.926 104.706C89.5908 104.271 90.3664 104.054 91.2527 104.054C91.7641 104.054 92.2691 104.139 92.7677 104.31C93.2662 104.48 93.7201 104.757 94.1292 105.141C94.5382 105.52 94.8642 106.023 95.1071 106.649C95.35 107.276 95.4715 108.047 95.4715 108.963V109.602H87.9033V108.298H93.9374C93.9374 107.744 93.8266 107.25 93.605 106.815C93.3877 106.381 93.0766 106.038 92.6718 105.786C92.2712 105.535 91.7982 105.409 91.2527 105.409C90.6519 105.409 90.132 105.558 89.6931 105.857C89.2584 106.151 88.9239 106.534 88.6895 107.007C88.4552 107.48 88.338 107.987 88.338 108.528V109.398C88.338 110.139 88.4658 110.768 88.7215 111.283C88.9814 111.795 89.3415 112.185 89.8017 112.453C90.262 112.717 90.7968 112.849 91.4061 112.849C91.8025 112.849 92.1604 112.794 92.48 112.683C92.8039 112.568 93.083 112.398 93.3174 112.172C93.5517 111.942 93.7328 111.656 93.8607 111.315L95.3181 111.724C95.1647 112.219 94.9069 112.653 94.5446 113.028C94.1824 113.399 93.735 113.689 93.2023 113.898C92.6696 114.102 92.0709 114.205 91.4061 114.205ZM99.2748 108.094V114H97.7662V100.909H99.2748V105.716H99.4026C99.6327 105.209 99.9779 104.806 100.438 104.508C100.903 104.205 101.52 104.054 102.292 104.054C102.961 104.054 103.547 104.188 104.05 104.457C104.552 104.721 104.942 105.128 105.219 105.678C105.501 106.223 105.641 106.918 105.641 107.761V114H104.133V107.864C104.133 107.084 103.93 106.481 103.525 106.055C103.125 105.624 102.569 105.409 101.857 105.409C101.363 105.409 100.92 105.513 100.528 105.722C100.14 105.931 99.833 106.236 99.6071 106.636C99.3855 107.037 99.2748 107.523 99.2748 108.094ZM112.39 114.205C111.503 114.205 110.726 113.994 110.057 113.572C109.392 113.15 108.872 112.56 108.497 111.801C108.126 111.043 107.941 110.156 107.941 109.142C107.941 108.119 108.126 107.227 108.497 106.464C108.872 105.701 109.392 105.109 110.057 104.687C110.726 104.265 111.503 104.054 112.39 104.054C113.276 104.054 114.052 104.265 114.716 104.687C115.385 105.109 115.905 105.701 116.276 106.464C116.651 107.227 116.838 108.119 116.838 109.142C116.838 110.156 116.651 111.043 116.276 111.801C115.905 112.56 115.385 113.15 114.716 113.572C114.052 113.994 113.276 114.205 112.39 114.205ZM112.39 112.849C113.063 112.849 113.617 112.677 114.052 112.332C114.486 111.987 114.808 111.533 115.017 110.97C115.226 110.408 115.33 109.798 115.33 109.142C115.33 108.486 115.226 107.874 115.017 107.308C114.808 106.741 114.486 106.283 114.052 105.933C113.617 105.584 113.063 105.409 112.39 105.409C111.716 105.409 111.162 105.584 110.728 105.933C110.293 106.283 109.971 106.741 109.762 107.308C109.554 107.874 109.449 108.486 109.449 109.142C109.449 109.798 109.554 110.408 109.762 110.97C109.971 111.533 110.293 111.987 110.728 112.332C111.162 112.677 111.716 112.849 112.39 112.849ZM120.65 100.909V114H119.141V100.909H120.65ZM127.12 114.205C126.302 114.205 125.58 113.998 124.953 113.585C124.327 113.167 123.837 112.579 123.483 111.82C123.129 111.058 122.952 110.156 122.952 109.116C122.952 108.085 123.129 107.19 123.483 106.432C123.837 105.673 124.329 105.087 124.96 104.674C125.59 104.261 126.319 104.054 127.146 104.054C127.785 104.054 128.29 104.161 128.661 104.374C129.036 104.582 129.321 104.821 129.517 105.089C129.717 105.354 129.873 105.571 129.984 105.741H130.112V100.909H131.62V114H130.163V112.491H129.984C129.873 112.67 129.715 112.896 129.511 113.169C129.306 113.437 129.014 113.678 128.635 113.891C128.256 114.1 127.751 114.205 127.12 114.205ZM127.325 112.849C127.93 112.849 128.441 112.692 128.859 112.376C129.276 112.057 129.594 111.616 129.811 111.053C130.028 110.487 130.137 109.832 130.137 109.091C130.137 108.358 130.031 107.717 129.818 107.167C129.604 106.613 129.289 106.183 128.872 105.876C128.454 105.565 127.938 105.409 127.325 105.409C126.685 105.409 126.153 105.573 125.727 105.901C125.305 106.225 124.987 106.666 124.774 107.224C124.565 107.778 124.461 108.401 124.461 109.091C124.461 109.79 124.568 110.425 124.781 110.996C124.998 111.562 125.318 112.014 125.739 112.351C126.166 112.683 126.694 112.849 127.325 112.849ZM138.709 114.205C137.763 114.205 136.947 113.996 136.261 113.578C135.579 113.156 135.053 112.568 134.682 111.814C134.315 111.055 134.132 110.173 134.132 109.168C134.132 108.162 134.315 107.276 134.682 106.509C135.053 105.737 135.568 105.136 136.229 104.706C136.894 104.271 137.669 104.054 138.555 104.054C139.067 104.054 139.572 104.139 140.07 104.31C140.569 104.48 141.023 104.757 141.432 105.141C141.841 105.52 142.167 106.023 142.41 106.649C142.653 107.276 142.774 108.047 142.774 108.963V109.602H135.206V108.298H141.24C141.24 107.744 141.129 107.25 140.908 106.815C140.69 106.381 140.379 106.038 139.975 105.786C139.574 105.535 139.101 105.409 138.555 105.409C137.955 105.409 137.435 105.558 136.996 105.857C136.561 106.151 136.227 106.534 135.992 107.007C135.758 107.48 135.641 107.987 135.641 108.528V109.398C135.641 110.139 135.769 110.768 136.024 111.283C136.284 111.795 136.644 112.185 137.104 112.453C137.565 112.717 138.1 112.849 138.709 112.849C139.105 112.849 139.463 112.794 139.783 112.683C140.107 112.568 140.386 112.398 140.62 112.172C140.854 111.942 141.036 111.656 141.163 111.315L142.621 111.724C142.467 112.219 142.21 112.653 141.847 113.028C141.485 113.399 141.038 113.689 140.505 113.898C139.972 114.102 139.374 114.205 138.709 114.205ZM145.069 114V104.182H146.526V105.665H146.629C146.808 105.179 147.131 104.785 147.6 104.482C148.069 104.18 148.597 104.028 149.185 104.028C149.296 104.028 149.435 104.031 149.601 104.035C149.767 104.039 149.893 104.045 149.978 104.054V105.588C149.927 105.575 149.81 105.556 149.626 105.531C149.448 105.501 149.258 105.486 149.058 105.486C148.58 105.486 148.154 105.586 147.779 105.786C147.408 105.982 147.114 106.255 146.897 106.604C146.684 106.95 146.577 107.344 146.577 107.787V114H145.069Z" fill="black"/>
</svg>
