<svg width="30" height="30" viewBox="0 0 30 30" fill="none" xmlns="http://www.w3.org/2000/svg">
<circle cx="15" cy="15" r="15" fill="#565656"/>
<path d="M22.7802 20.7028C22.8499 20.7673 22.9052 20.8439 22.9429 20.9282C22.9806 21.0125 23 21.1029 23 21.1941C23 21.2853 22.9806 21.3757 22.9429 21.46C22.9052 21.5443 22.8499 21.6209 22.7802 21.6854C22.7105 21.7499 22.6278 21.8011 22.5368 21.836C22.4457 21.8709 22.3482 21.8889 22.2496 21.8889C22.1511 21.8889 22.0535 21.8709 21.9625 21.836C21.8714 21.8011 21.7887 21.7499 21.719 21.6854L15.5 15.9262L9.28097 21.6854C9.14025 21.8157 8.94939 21.8889 8.75038 21.8889C8.55136 21.8889 8.3605 21.8157 8.21978 21.6854C8.07906 21.5551 8 21.3784 8 21.1941C8 21.0098 8.07906 20.8331 8.21978 20.7028L14.4397 14.9444L8.21978 9.18608C8.07906 9.05579 8 8.87906 8 8.69479C8 8.51052 8.07906 8.3338 8.21978 8.2035C8.3605 8.0732 8.55136 8 8.75038 8C8.94939 8 9.14025 8.0732 9.28097 8.2035L15.5 13.9627L21.719 8.2035C21.8598 8.0732 22.0506 8 22.2496 8C22.4486 8 22.6395 8.0732 22.7802 8.2035C22.9209 8.3338 23 8.51052 23 8.69479C23 8.87906 22.9209 9.05579 22.7802 9.18608L16.5603 14.9444L22.7802 20.7028Z" fill="white"/>
</svg>
