<svg width="32" height="32" viewBox="0 0 32 32" fill="none" xmlns="http://www.w3.org/2000/svg">
<path d="M0.209961 15.9042C0.209961 17.3681 1.39672 18.5549 2.86066 18.5549H28.4994C29.9634 18.5549 31.1501 17.3681 31.1501 15.9042C31.1501 14.4403 29.9634 13.2535 28.4994 13.2535H2.86066C1.39672 13.2535 0.209961 14.4403 0.209961 15.9042ZM0.209961 29.1577C0.209961 30.6217 1.39672 31.8084 2.86066 31.8084H28.4994C29.9634 31.8084 31.1501 30.6217 31.1501 29.1577C31.1501 27.6938 29.9634 26.507 28.4994 26.507H2.86066C1.39672 26.507 0.209961 27.6938 0.209961 29.1577ZM2.86066 0C1.39672 0 0.209961 1.18676 0.209961 2.6507C0.209961 4.11464 1.39672 5.3014 2.86066 5.3014H28.4994C29.9634 5.3014 31.1501 4.11464 31.1501 2.6507C31.1501 1.18676 29.9634 0 28.4994 0H2.86066Z" fill="white"/>
</svg>
