<svg width="274" height="42" viewBox="0 0 274 42" fill="none" xmlns="http://www.w3.org/2000/svg">
<circle cx="21" cy="21" r="21" fill="#9A15EC"/>
<path d="M24.1374 11.5455V29H20.4471V15.0483H20.3448L16.3477 17.554V14.2812L20.6687 11.5455H24.1374Z" fill="white"/>
<circle cx="137" cy="21" r="21" fill="#E1E1E1"/>
<path d="M130.856 29V26.3409L137.069 20.5881C137.598 20.0767 138.041 19.6165 138.399 19.2074C138.762 18.7983 139.038 18.3977 139.225 18.0057C139.413 17.608 139.507 17.179 139.507 16.7188C139.507 16.2074 139.39 15.767 139.157 15.3977C138.924 15.0227 138.606 14.7358 138.203 14.5369C137.799 14.3324 137.342 14.2301 136.831 14.2301C136.297 14.2301 135.831 14.3381 135.433 14.554C135.035 14.7699 134.728 15.0795 134.512 15.483C134.297 15.8864 134.189 16.3665 134.189 16.9233H130.686C130.686 15.7812 130.944 14.7898 131.461 13.9489C131.978 13.108 132.703 12.4574 133.635 11.9972C134.566 11.5369 135.64 11.3068 136.856 11.3068C138.106 11.3068 139.194 11.5284 140.12 11.9716C141.052 12.4091 141.777 13.017 142.294 13.7955C142.811 14.5739 143.069 15.4659 143.069 16.4716C143.069 17.1307 142.939 17.7812 142.677 18.4233C142.422 19.0653 141.964 19.7784 141.305 20.5625C140.646 21.3409 139.717 22.2756 138.518 23.3665L135.97 25.8636V25.983H143.299V29H130.856Z" fill="#565656"/>
<circle cx="253" cy="21" r="21" fill="#E1E1E1"/>
<path d="M252.956 29.2386C251.684 29.2386 250.55 29.0199 249.556 28.5824C248.567 28.1392 247.786 27.5312 247.212 26.7585C246.644 25.9801 246.351 25.0824 246.334 24.0653H250.05C250.073 24.4915 250.212 24.8665 250.468 25.1903C250.729 25.5085 251.076 25.7557 251.507 25.9318C251.939 26.108 252.425 26.196 252.965 26.196C253.527 26.196 254.025 26.0966 254.456 25.8977C254.888 25.6989 255.226 25.4233 255.471 25.071C255.715 24.7187 255.837 24.3125 255.837 23.8523C255.837 23.3864 255.706 22.9744 255.445 22.6165C255.189 22.2528 254.82 21.9687 254.337 21.7642C253.86 21.5597 253.292 21.4574 252.632 21.4574H251.005V18.7472H252.632C253.189 18.7472 253.681 18.6506 254.107 18.4574C254.539 18.2642 254.874 17.9972 255.113 17.6562C255.351 17.3097 255.471 16.9062 255.471 16.446C255.471 16.0085 255.365 15.625 255.155 15.2955C254.951 14.9602 254.661 14.6989 254.286 14.5114C253.917 14.3239 253.485 14.2301 252.99 14.2301C252.49 14.2301 252.033 14.321 251.618 14.5028C251.203 14.679 250.871 14.9318 250.621 15.2614C250.371 15.5909 250.238 15.9773 250.221 16.4205H246.684C246.701 15.4148 246.988 14.5284 247.544 13.7614C248.101 12.9943 248.851 12.3949 249.794 11.9631C250.743 11.5256 251.814 11.3068 253.007 11.3068C254.212 11.3068 255.266 11.5256 256.169 11.9631C257.073 12.4006 257.775 12.9915 258.275 13.7358C258.78 14.4744 259.03 15.304 259.025 16.2244C259.03 17.2017 258.726 18.017 258.113 18.6705C257.505 19.3239 256.712 19.7386 255.735 19.9148V20.0511C257.019 20.2159 257.996 20.6619 258.667 21.3892C259.343 22.1108 259.678 23.0142 259.672 24.0994C259.678 25.0938 259.391 25.9773 258.811 26.75C258.238 27.5227 257.445 28.1307 256.434 28.5739C255.422 29.017 254.263 29.2386 252.956 29.2386Z" fill="#565656"/>
<line x1="50.5" y1="18.5" x2="105.5" y2="18.5" stroke="#E1E1E1" stroke-width="3" stroke-linecap="round" stroke-dasharray="6 6"/>
<line x1="167.5" y1="18.5" x2="222.5" y2="18.5" stroke="#E1E1E1" stroke-width="3" stroke-linecap="round" stroke-dasharray="6 6"/>
</svg>
