<svg width="163" height="45" viewBox="0 0 163 45" fill="none" xmlns="http://www.w3.org/2000/svg">
<path d="M41.25 22.5C41.25 12.15 32.85 3.75 22.5 3.75C12.15 3.75 3.75 12.15 3.75 22.5C3.75 31.575 10.2 39.1312 18.75 40.875V28.125H15V22.5H18.75V17.8125C18.75 14.1937 21.6938 11.25 25.3125 11.25H30V16.875H26.25C25.2188 16.875 24.375 17.7187 24.375 18.75V22.5H30V28.125H24.375V41.1562C33.8438 40.2188 41.25 32.2312 41.25 22.5Z" fill="white"/>
<path d="M107 8.19294C105.491 8.92671 103.864 9.40889 102.179 9.63951C103.903 8.52838 105.236 6.76734 105.863 4.64991C104.237 5.69814 102.434 6.43191 100.533 6.8512C98.9842 5.04824 96.8088 4 94.3394 4C89.7337 4 85.9708 8.02522 85.9708 12.9939C85.9708 13.7067 86.0492 14.3985 86.1864 15.0484C79.2094 14.671 72.9967 11.0861 68.8614 5.65621C68.1362 6.97699 67.7247 8.52838 67.7247 10.1636C67.7247 13.2874 69.1946 16.0547 71.468 17.6271C70.0765 17.6271 68.783 17.2078 67.6463 16.5788V16.6417C67.6463 21.0024 70.5468 24.6502 74.3881 25.4679C73.1551 25.8304 71.86 25.8807 70.6056 25.6146C71.1379 27.4018 72.1805 28.9656 73.5866 30.0862C74.9928 31.2068 76.6918 31.8279 78.445 31.8621C75.4733 34.3789 71.7894 35.7393 67.999 35.7196C67.3327 35.7196 66.6663 35.6777 66 35.5938C69.7237 38.1515 74.153 39.64 78.8958 39.64C94.3394 39.64 102.826 25.9291 102.826 14.0421C102.826 13.6438 102.826 13.2664 102.806 12.8681C104.452 11.6102 105.863 10.0169 107 8.19294Z" fill="white"/>
<path d="M147.299 5C149.268 5.00567 150.267 5.01701 151.13 5.04347L151.469 5.0567C151.861 5.07182 152.248 5.09072 152.715 5.1134C154.577 5.2079 155.847 5.52541 156.962 5.99223C158.117 6.47228 159.09 7.12242 160.063 8.17135C160.953 9.11613 161.641 10.259 162.081 11.5203C162.513 12.7242 162.807 14.0964 162.894 16.1092C162.915 16.6119 162.933 17.0296 162.947 17.4548L162.957 17.8215C162.983 18.7513 162.994 19.8305 162.997 21.9567L162.999 23.3666V25.8424C163.004 27.221 162.99 28.5995 162.959 29.9777L162.948 30.3443C162.934 30.7695 162.917 31.1872 162.896 31.69C162.808 33.7028 162.511 35.073 162.081 36.2788C161.642 37.5408 160.954 38.684 160.063 39.6278C159.188 40.5885 158.13 41.332 156.962 41.8069C155.847 42.2737 154.577 42.5912 152.715 42.6857C152.3 42.7068 151.884 42.7257 151.469 42.7424L151.13 42.7538C150.267 42.7802 149.268 42.7934 147.299 42.7972L145.994 42.7991H143.703C142.426 42.8039 141.149 42.7894 139.872 42.7556L139.533 42.7443C139.118 42.7273 138.702 42.7078 138.287 42.6857C136.425 42.5912 135.155 42.2737 134.038 41.8069C132.87 41.3332 131.813 40.5895 130.939 39.6278C130.048 38.6833 129.359 37.5404 128.92 36.2788C128.487 35.0749 128.193 33.7028 128.106 31.69C128.087 31.2415 128.069 30.7929 128.054 30.3443L128.045 29.9777C128.013 28.5995 127.998 27.221 128.001 25.8424V21.9567C127.996 20.5781 128.009 19.1996 128.04 17.8215L128.052 17.4548C128.066 17.0296 128.083 16.6119 128.104 16.1092C128.192 14.0964 128.486 12.7261 128.918 11.5203C129.357 10.2577 130.048 9.11448 130.941 8.17135C131.814 7.21025 132.871 6.46658 134.038 5.99223C135.155 5.52541 136.423 5.2079 138.287 5.1134C138.752 5.09072 139.141 5.07182 139.533 5.0567L139.872 5.04536C141.148 5.01178 142.425 4.99729 143.701 5.00189L147.299 5ZM145.5 14.4498C143.18 14.4498 140.954 15.4454 139.313 17.2176C137.672 18.9897 136.751 21.3933 136.751 23.8996C136.751 26.4058 137.672 28.8094 139.313 30.5816C140.954 32.3537 143.18 33.3493 145.5 33.3493C147.821 33.3493 150.046 32.3537 151.687 30.5816C153.328 28.8094 154.25 26.4058 154.25 23.8996C154.25 21.3933 153.328 18.9897 151.687 17.2176C150.046 15.4454 147.821 14.4498 145.5 14.4498ZM145.5 18.2297C146.19 18.2296 146.872 18.3761 147.509 18.6609C148.146 18.9457 148.725 19.3633 149.212 19.8897C149.7 20.4161 150.087 21.0411 150.351 21.7289C150.615 22.4168 150.751 23.154 150.751 23.8986C150.751 24.6432 150.615 25.3805 150.351 26.0684C150.088 26.7564 149.701 27.3815 149.214 27.9081C148.726 28.4347 148.148 28.8524 147.511 29.1375C146.874 29.4225 146.191 29.5693 145.502 29.5694C144.11 29.5694 142.774 28.9721 141.79 27.9088C140.805 26.8455 140.252 25.4033 140.252 23.8996C140.252 22.3958 140.805 20.9537 141.79 19.8904C142.774 18.827 144.11 18.2297 145.502 18.2297M154.689 11.6148C154.109 11.6148 153.552 11.8637 153.142 12.3068C152.732 12.7498 152.502 13.3507 152.502 13.9773C152.502 14.6038 152.732 15.2047 153.142 15.6478C153.552 16.0908 154.109 16.3397 154.689 16.3397C155.269 16.3397 155.825 16.0908 156.236 15.6478C156.646 15.2047 156.876 14.6038 156.876 13.9773C156.876 13.3507 156.646 12.7498 156.236 12.3068C155.825 11.8637 155.269 11.6148 154.689 11.6148Z" fill="white"/>
</svg>
