<svg width="139" height="43" viewBox="0 0 139 43" fill="none" xmlns="http://www.w3.org/2000/svg">
<rect width="92.5" height="42.5" fill="white"/>
<path d="M13.075 13.675C13.1917 14.0083 13.325 14.4417 13.475 14.975C13.6417 15.4917 13.8167 16.0333 14 16.6C14.1833 17.1667 14.3417 17.6917 14.475 18.175C14.6917 18.875 14.9083 19.6167 15.125 20.4C15.3583 21.1833 15.5667 21.8917 15.75 22.525C15.95 23.1417 16.0917 23.5833 16.175 23.85C16.225 24.0167 16.2667 24.175 16.3 24.325C16.35 24.475 16.3917 24.6167 16.425 24.75C16.475 24.8667 16.5167 24.9833 16.55 25.1C16.5833 25.2 16.6167 25.3 16.65 25.4C16.6833 25.4833 16.7083 25.5583 16.725 25.625C16.7417 25.6917 16.7583 25.75 16.775 25.8C16.7917 25.85 16.8083 25.8833 16.825 25.9C16.8417 25.9167 16.85 25.925 16.85 25.925C16.8667 25.9083 16.8833 25.8833 16.9 25.85C16.9167 25.8 16.9333 25.7417 16.95 25.675C16.9667 25.6083 16.9833 25.525 17 25.425C17.0333 25.325 17.0667 25.2167 17.1 25.1C17.1333 24.9667 17.1667 24.8333 17.2 24.7C17.2333 24.55 17.2667 24.4 17.3 24.25C17.35 24.0833 17.4 23.9167 17.45 23.75C17.4833 23.5833 17.55 23.3083 17.65 22.925C17.75 22.5417 17.8583 22.1 17.975 21.6C18.0917 21.1 18.2083 20.6083 18.325 20.125C18.4583 19.625 18.5667 19.1917 18.65 18.825C18.7333 18.5417 18.8167 18.225 18.9 17.875C18.9833 17.525 19.0667 17.1583 19.15 16.775C19.25 16.3917 19.35 15.9917 19.45 15.575C19.5667 15.1583 19.675 14.7417 19.775 14.325C19.875 13.8917 20.0417 13.575 20.275 13.375C20.525 13.1583 20.7833 13.05 21.05 13.05C21.3167 13.05 21.5667 13.1583 21.8 13.375C22.05 13.5917 22.225 13.9167 22.325 14.35C22.425 14.7833 22.525 15.2083 22.625 15.625C22.7417 16.0417 22.8417 16.4417 22.925 16.825C23.025 17.1917 23.1083 17.5417 23.175 17.875C23.2583 18.2083 23.3333 18.5083 23.4 18.775C23.5333 19.3083 23.6833 19.925 23.85 20.625C24.0333 21.3083 24.2 21.95 24.35 22.55C24.5167 23.1333 24.6333 23.55 24.7 23.8C24.7333 23.9667 24.775 24.1333 24.825 24.3C24.875 24.45 24.9167 24.6083 24.95 24.775C25 24.925 25.0417 25.075 25.075 25.225C25.1083 25.3583 25.1417 25.4833 25.175 25.6C25.2083 25.7 25.2333 25.7833 25.25 25.85C25.2667 25.9167 25.275 25.975 25.275 26.025C25.2917 26.075 25.3 26.1083 25.3 26.125C25.3167 26.1417 25.325 26.1417 25.325 26.125C25.3417 26.1083 25.3583 26.0833 25.375 26.05C25.3917 26 25.4083 25.9333 25.425 25.85C25.4583 25.7667 25.4917 25.6667 25.525 25.55C25.5583 25.4333 25.5917 25.3083 25.625 25.175C25.675 25.025 25.725 24.875 25.775 24.725C25.825 24.5583 25.875 24.4 25.925 24.25C25.975 24.1 26.025 23.95 26.075 23.8C26.1417 23.5667 26.2417 23.2417 26.375 22.825C26.5083 22.3917 26.6583 21.9 26.825 21.35C26.9917 20.7833 27.1667 20.2 27.35 19.6C27.5333 18.9833 27.7083 18.3833 27.875 17.8C28.025 17.2833 28.175 16.775 28.325 16.275C28.475 15.775 28.6167 15.3083 28.75 14.875C28.9 14.425 29.025 14.025 29.125 13.675C29.2583 13.275 29.4583 13.0083 29.725 12.875C30.0083 12.725 30.2917 12.7 30.575 12.8C30.8583 12.8833 31.075 13.0583 31.225 13.325C31.3917 13.5917 31.4083 13.925 31.275 14.325C31.175 14.675 31.0583 15.075 30.925 15.525C30.7917 15.9583 30.65 16.4167 30.5 16.9C30.3667 17.3667 30.225 17.8333 30.075 18.3C29.8917 18.9333 29.7167 19.5333 29.55 20.1C29.3833 20.65 29.225 21.175 29.075 21.675C28.925 22.175 28.775 22.6667 28.625 23.15C28.475 23.6333 28.325 24.1167 28.175 24.6C28.0917 24.85 28.0083 25.1083 27.925 25.375C27.8583 25.6417 27.7833 25.9167 27.7 26.2C27.6167 26.4667 27.525 26.75 27.425 27.05C27.325 27.3333 27.225 27.6333 27.125 27.95C27.025 28.2667 26.9083 28.5917 26.775 28.925C26.6583 29.2583 26.4833 29.525 26.25 29.725C26.0333 29.925 25.7917 30.0583 25.525 30.125C25.2583 30.1917 24.9917 30.1917 24.725 30.125C24.475 30.075 24.25 29.95 24.05 29.75C23.8667 29.55 23.7333 29.2917 23.65 28.975C23.5833 28.6417 23.5083 28.325 23.425 28.025C23.3583 27.7083 23.2833 27.4083 23.2 27.125C23.1333 26.825 23.0667 26.5333 23 26.25C22.9333 25.9667 22.8583 25.6833 22.775 25.4C22.7083 25.1167 22.6417 24.8333 22.575 24.55C22.4917 24.2 22.3917 23.8167 22.275 23.4C22.1583 22.9667 22.0333 22.5 21.9 22C21.7833 21.5 21.65 20.9583 21.5 20.375C21.35 19.7917 21.1917 19.1667 21.025 18.5C20.9083 18.0167 20.7583 17.6083 20.575 17.275C20.3917 16.925 20.2167 16.6083 20.05 16.325C19.9 16.0417 19.7917 15.7417 19.725 15.425C19.6583 15.1083 19.675 14.7417 19.775 14.325C19.875 13.8917 20.0417 13.575 20.275 13.375C20.525 13.1583 20.7833 13.05 21.05 13.05C21.3167 13.05 21.5667 13.1583 21.8 13.375C22.05 13.5917 22.225 13.9167 22.325 14.35C22.425 14.7833 22.4417 15.1583 22.375 15.475C22.3083 15.775 22.2 16.0583 22.05 16.325C21.9 16.5917 21.7333 16.8917 21.55 17.225C21.3667 17.5583 21.2167 17.9667 21.1 18.45C20.9333 19.1167 20.775 19.7417 20.625 20.325C20.475 20.9083 20.3333 21.45 20.2 21.95C20.0833 22.45 19.9667 22.9167 19.85 23.35C19.75 23.7667 19.6583 24.15 19.575 24.5C19.5083 24.7833 19.4333 25.0583 19.35 25.325C19.2833 25.5917 19.2083 25.8583 19.125 26.125C19.0583 26.3917 18.9833 26.6667 18.9 26.95C18.8167 27.2333 18.7333 27.5333 18.65 27.85C18.5667 28.1667 18.475 28.5083 18.375 28.875C18.275 29.2417 18.125 29.5333 17.925 29.75C17.725 29.9667 17.5 30.1083 17.25 30.175C17.0167 30.2417 16.775 30.2417 16.525 30.175C16.275 30.1083 16.05 29.975 15.85 29.775C15.65 29.5583 15.5 29.2833 15.4 28.95C15.3 28.6167 15.2 28.3 15.1 28C15.0167 27.7 14.925 27.4167 14.825 27.15C14.7417 26.8667 14.6583 26.5917 14.575 26.325C14.4917 26.0583 14.4083 25.7917 14.325 25.525C14.2417 25.2417 14.1583 24.9583 14.075 24.675C13.9083 24.1083 13.725 23.5083 13.525 22.875C13.3417 22.2417 13.15 21.5917 12.95 20.925C12.75 20.2417 12.55 19.5583 12.35 18.875C12.2 18.375 12.0333 17.8417 11.85 17.275C11.6667 16.7083 11.4917 16.1667 11.325 15.65C11.175 15.1167 11.0417 14.675 10.925 14.325C10.8083 13.925 10.825 13.5917 10.975 13.325C11.125 13.0583 11.3417 12.8833 11.625 12.8C11.9083 12.7 12.1917 12.725 12.475 12.875C12.7583 13.0083 12.9583 13.275 13.075 13.675ZM48.1385 15.25C47.6385 15.25 47.0801 15.25 46.4635 15.25C45.8635 15.25 45.3468 15.25 44.9135 15.25C44.5468 15.25 44.2468 15.25 44.0135 15.25C43.7968 15.25 43.5885 15.25 43.3885 15.25C43.2051 15.25 42.9801 15.25 42.7135 15.25C42.2468 15.25 41.9801 15.325 41.9135 15.475C41.8468 15.625 41.8135 15.9333 41.8135 16.4C41.8135 16.8333 41.8135 17.2167 41.8135 17.55C41.8135 17.8833 41.8135 18.1917 41.8135 18.475C41.8135 18.7583 41.8135 19.05 41.8135 19.35C41.8135 19.4333 41.8218 19.525 41.8385 19.625C41.8551 19.7083 41.8801 19.7917 41.9135 19.875C41.9635 19.9417 42.0135 20 42.0635 20.05C42.1301 20.1 42.2051 20.125 42.2885 20.125C42.6218 20.125 43.0218 20.125 43.4885 20.125C43.9718 20.125 44.4718 20.125 44.9885 20.125C45.5051 20.125 45.9968 20.125 46.4635 20.125C46.9301 20.125 47.3218 20.125 47.6385 20.125C47.9718 20.125 48.2385 20.2 48.4385 20.35C48.6385 20.5 48.7718 20.6917 48.8385 20.925C48.9051 21.1417 48.9051 21.3667 48.8385 21.6C48.7718 21.8167 48.6385 22 48.4385 22.15C48.2385 22.3 47.9718 22.375 47.6385 22.375C47.3218 22.375 46.9135 22.375 46.4135 22.375C45.9301 22.375 45.4218 22.375 44.8885 22.375C44.3551 22.375 43.8551 22.375 43.3885 22.375C42.9385 22.375 42.5801 22.375 42.3135 22.375C42.1468 22.375 42.0218 22.375 41.9385 22.375C41.8551 22.375 41.8135 22.4417 41.8135 22.575C41.8135 23.1583 41.8135 23.7417 41.8135 24.325C41.8135 24.8917 41.8135 25.4083 41.8135 25.875C41.8135 26.3417 41.8135 26.7 41.8135 26.95C41.8135 27.35 41.8635 27.5833 41.9635 27.65C42.0635 27.7167 42.2968 27.75 42.6635 27.75C43.1135 27.75 43.4718 27.75 43.7385 27.75C44.0051 27.75 44.3468 27.75 44.7635 27.75C45.1468 27.75 45.4801 27.75 45.7635 27.75C46.0635 27.75 46.3885 27.75 46.7385 27.75C47.1051 27.75 47.5718 27.75 48.1385 27.75C48.5551 27.75 48.8635 27.8667 49.0635 28.1C49.2801 28.3167 49.3885 28.575 49.3885 28.875C49.3885 29.175 49.2801 29.4417 49.0635 29.675C48.8635 29.8917 48.5551 30 48.1385 30C47.5718 30 46.9635 30 46.3135 30C45.6635 30 45.1468 30 44.7635 30C44.3468 30 44.0218 30 43.7885 30C43.5551 30 43.3551 30 43.1885 30C43.0385 30 42.8635 30 42.6635 30C41.9968 30 41.4301 29.9 40.9635 29.7C40.5135 29.5 40.1635 29.175 39.9135 28.725C39.6801 28.275 39.5635 27.6833 39.5635 26.95C39.5635 26.5667 39.5635 26.1083 39.5635 25.575C39.5635 25.0417 39.5635 24.5083 39.5635 23.975C39.5635 23.4417 39.5635 22.975 39.5635 22.575C39.5635 22.0583 39.6551 21.6167 39.8385 21.25C40.0385 20.8833 40.3385 20.6083 40.7385 20.425C41.1551 20.225 41.6801 20.125 42.3135 20.125C42.7135 20.125 43.1468 20.125 43.6135 20.125C44.0968 20.125 44.5885 20.125 45.0885 20.125C45.5885 20.125 46.0551 20.125 46.4885 20.125C46.9385 20.125 47.3218 20.125 47.6385 20.125C47.9718 20.125 48.2385 20.2 48.4385 20.35C48.6385 20.5 48.7718 20.6917 48.8385 20.925C48.9051 21.1417 48.9051 21.3667 48.8385 21.6C48.7718 21.8167 48.6385 22 48.4385 22.15C48.2385 22.3 47.9718 22.375 47.6385 22.375C47.3218 22.375 46.9051 22.375 46.3885 22.375C45.8885 22.375 45.3635 22.375 44.8135 22.375C44.2801 22.375 43.7801 22.375 43.3135 22.375C42.8468 22.375 42.5051 22.375 42.2885 22.375C41.9051 22.375 41.5468 22.3 41.2135 22.15C40.8968 22 40.6135 21.7917 40.3635 21.525C40.1135 21.2417 39.9135 20.9167 39.7635 20.55C39.6301 20.1833 39.5635 19.7833 39.5635 19.35C39.5635 19.15 39.5635 18.875 39.5635 18.525C39.5635 18.175 39.5635 17.8167 39.5635 17.45C39.5635 17.0667 39.5635 16.7167 39.5635 16.4C39.5635 15.65 39.6635 15.025 39.8635 14.525C40.0801 14.0083 40.4135 13.625 40.8635 13.375C41.3301 13.125 41.9468 13 42.7135 13C43.0968 13 43.4051 13 43.6385 13C43.8718 13 44.0801 13 44.2635 13C44.4468 13 44.6635 13 44.9135 13C45.3468 13 45.7051 13 45.9885 13C46.2885 13 46.5968 13 46.9135 13C47.2301 13 47.6385 13 48.1385 13C48.5551 13 48.8718 13.1167 49.0885 13.35C49.3051 13.5667 49.4135 13.825 49.4135 14.125C49.4135 14.425 49.3051 14.6917 49.0885 14.925C48.8718 15.1417 48.5551 15.25 48.1385 15.25ZM59.0205 27.125C59.4205 27.2917 59.8122 27.4417 60.1955 27.575C60.5955 27.6917 60.9872 27.7833 61.3705 27.85C61.7538 27.9 62.1205 27.925 62.4705 27.925C63.0538 27.925 63.5788 27.8417 64.0455 27.675C64.5288 27.4917 64.9122 27.2167 65.1955 26.85C65.4788 26.4833 65.6205 26.0083 65.6205 25.425C65.6205 24.8083 65.4372 24.3167 65.0705 23.95C64.7205 23.5667 64.2788 23.2583 63.7455 23.025C63.2288 22.775 62.7205 22.55 62.2205 22.35C61.6038 22.1 61.0122 21.8333 60.4455 21.55C59.8955 21.2667 59.4038 20.9417 58.9705 20.575C58.5538 20.2083 58.2205 19.7667 57.9705 19.25C57.7205 18.7333 57.5955 18.1167 57.5955 17.4C57.5955 16.7 57.7205 16.0667 57.9705 15.5C58.2205 14.9333 58.5705 14.45 59.0205 14.05C59.4872 13.65 60.0372 13.3417 60.6705 13.125C61.3038 12.9083 62.0122 12.8 62.7955 12.8C63.3788 12.8 63.9955 12.8583 64.6455 12.975C65.3122 13.0917 65.9955 13.2833 66.6955 13.55C67.0955 13.7 67.3538 13.9167 67.4705 14.2C67.5872 14.4833 67.5872 14.7667 67.4705 15.05C67.3705 15.3333 67.1788 15.5417 66.8955 15.675C66.6288 15.8083 66.2955 15.8 65.8955 15.65C65.3455 15.45 64.8038 15.3 64.2705 15.2C63.7538 15.1 63.2622 15.05 62.7955 15.05C62.2122 15.05 61.6955 15.1333 61.2455 15.3C60.8122 15.4667 60.4705 15.725 60.2205 16.075C59.9705 16.425 59.8455 16.8667 59.8455 17.4C59.8455 17.9667 60.0122 18.425 60.3455 18.775C60.6788 19.125 61.0955 19.4167 61.5955 19.65C62.0955 19.8667 62.5872 20.0667 63.0705 20.25C63.6872 20.5167 64.2788 20.7917 64.8455 21.075C65.4288 21.3583 65.9455 21.6917 66.3955 22.075C66.8455 22.4583 67.2038 22.925 67.4705 23.475C67.7372 24.0083 67.8705 24.6583 67.8705 25.425C67.8705 26.1917 67.7288 26.8667 67.4455 27.45C67.1788 28.0333 66.7955 28.5333 66.2955 28.95C65.8122 29.35 65.2372 29.6583 64.5705 29.875C63.9205 30.075 63.2205 30.175 62.4705 30.175C62.1372 30.175 61.7872 30.15 61.4205 30.1C61.0705 30.0667 60.7122 30.0083 60.3455 29.925C59.9788 29.8417 59.6038 29.7417 59.2205 29.625C58.8538 29.4917 58.4872 29.3417 58.1205 29.175C57.7372 29.0083 57.4872 28.7833 57.3705 28.5C57.2705 28.2 57.2788 27.9167 57.3955 27.65C57.5288 27.3667 57.7372 27.1667 58.0205 27.05C58.3038 26.9333 58.6372 26.9583 59.0205 27.125ZM85.0037 15.25C84.7537 15.25 84.3454 15.25 83.7787 15.25C83.2287 15.25 82.587 15.25 81.8537 15.25C81.137 15.25 80.412 15.25 79.6787 15.25C78.962 15.25 78.2954 15.25 77.6787 15.25C77.0787 15.25 76.6204 15.25 76.3037 15.25C75.9704 15.25 75.6954 15.175 75.4787 15.025C75.2787 14.875 75.1454 14.6917 75.0787 14.475C75.012 14.2417 75.012 14.0167 75.0787 13.8C75.1454 13.5667 75.2787 13.375 75.4787 13.225C75.6954 13.075 75.9704 13 76.3037 13C76.8204 13 77.337 13.05 77.8537 13.15C78.387 13.2333 78.887 13.3833 79.3537 13.6C79.8204 13.8 80.237 14.0667 80.6037 14.4C80.9704 14.7333 81.2537 15.1333 81.4537 15.6C81.6704 16.0667 81.7787 16.6167 81.7787 17.25C81.7787 17.9167 81.7787 18.65 81.7787 19.45C81.7787 20.2333 81.7787 21.0083 81.7787 21.775C81.7787 22.525 81.7787 23.2083 81.7787 23.825C81.7787 24.4417 81.7787 24.9083 81.7787 25.225C81.7787 25.625 81.7787 26.05 81.7787 26.5C81.7787 26.95 81.7787 27.3917 81.7787 27.825C81.7787 28.2417 81.7787 28.6333 81.7787 29C81.7787 29.4167 81.662 29.7333 81.4287 29.95C81.212 30.1667 80.9537 30.275 80.6537 30.275C80.3537 30.275 80.087 30.1667 79.8537 29.95C79.637 29.7333 79.5287 29.4167 79.5287 29C79.5287 28.6333 79.5287 28.2417 79.5287 27.825C79.5287 27.3917 79.5287 26.95 79.5287 26.5C79.5287 26.05 79.5287 25.625 79.5287 25.225C79.5287 24.9083 79.5287 24.425 79.5287 23.775C79.5287 23.1083 79.5287 22.375 79.5287 21.575C79.5287 20.7583 79.5287 19.9667 79.5287 19.2C79.5287 18.4333 79.5287 17.7833 79.5287 17.25C79.5287 16.7333 79.437 16.3417 79.2537 16.075C79.0704 15.7917 78.8204 15.5917 78.5037 15.475C78.2037 15.3583 77.862 15.2917 77.4787 15.275C77.0954 15.2583 76.7037 15.25 76.3037 15.25C75.9704 15.25 75.6954 15.175 75.4787 15.025C75.2787 14.875 75.1454 14.6917 75.0787 14.475C75.012 14.2417 75.012 14.0167 75.0787 13.8C75.1454 13.5667 75.2787 13.375 75.4787 13.225C75.6954 13.075 75.9704 13 76.3037 13C76.8204 13 77.4204 13 78.1037 13C78.8037 13 79.512 13 80.2287 13C80.962 13 81.662 13 82.3287 13C82.9954 13 83.562 13 84.0287 13C84.512 13 84.837 13 85.0037 13C85.437 13 85.7537 13.1167 85.9537 13.35C86.1704 13.5667 86.2787 13.825 86.2787 14.125C86.2787 14.425 86.1704 14.6917 85.9537 14.925C85.7537 15.1417 85.437 15.25 85.0037 15.25Z" fill="#1D1D1D"/>
<path d="M108.575 15.25C108.075 15.25 107.517 15.25 106.9 15.25C106.3 15.25 105.783 15.25 105.35 15.25C104.983 15.25 104.683 15.25 104.45 15.25C104.233 15.25 104.025 15.25 103.825 15.25C103.642 15.25 103.417 15.25 103.15 15.25C102.683 15.25 102.417 15.325 102.35 15.475C102.283 15.625 102.25 15.9333 102.25 16.4C102.25 16.8333 102.25 17.2167 102.25 17.55C102.25 17.8833 102.25 18.1917 102.25 18.475C102.25 18.7583 102.25 19.05 102.25 19.35C102.25 19.4333 102.258 19.525 102.275 19.625C102.292 19.7083 102.317 19.7917 102.35 19.875C102.4 19.9417 102.45 20 102.5 20.05C102.567 20.1 102.642 20.125 102.725 20.125C103.058 20.125 103.458 20.125 103.925 20.125C104.408 20.125 104.908 20.125 105.425 20.125C105.942 20.125 106.433 20.125 106.9 20.125C107.367 20.125 107.758 20.125 108.075 20.125C108.408 20.125 108.675 20.2 108.875 20.35C109.075 20.5 109.208 20.6917 109.275 20.925C109.342 21.1417 109.342 21.3667 109.275 21.6C109.208 21.8167 109.075 22 108.875 22.15C108.675 22.3 108.408 22.375 108.075 22.375C107.758 22.375 107.35 22.375 106.85 22.375C106.367 22.375 105.858 22.375 105.325 22.375C104.792 22.375 104.292 22.375 103.825 22.375C103.375 22.375 103.017 22.375 102.75 22.375C102.583 22.375 102.458 22.375 102.375 22.375C102.292 22.375 102.25 22.4417 102.25 22.575C102.25 23.1583 102.25 23.7417 102.25 24.325C102.25 24.8917 102.25 25.4083 102.25 25.875C102.25 26.3417 102.25 26.7 102.25 26.95C102.25 27.35 102.3 27.5833 102.4 27.65C102.5 27.7167 102.733 27.75 103.1 27.75C103.55 27.75 103.908 27.75 104.175 27.75C104.442 27.75 104.783 27.75 105.2 27.75C105.583 27.75 105.917 27.75 106.2 27.75C106.5 27.75 106.825 27.75 107.175 27.75C107.542 27.75 108.008 27.75 108.575 27.75C108.992 27.75 109.3 27.8667 109.5 28.1C109.717 28.3167 109.825 28.575 109.825 28.875C109.825 29.175 109.717 29.4417 109.5 29.675C109.3 29.8917 108.992 30 108.575 30C108.008 30 107.4 30 106.75 30C106.1 30 105.583 30 105.2 30C104.783 30 104.458 30 104.225 30C103.992 30 103.792 30 103.625 30C103.475 30 103.3 30 103.1 30C102.433 30 101.867 29.9 101.4 29.7C100.95 29.5 100.6 29.175 100.35 28.725C100.117 28.275 100 27.6833 100 26.95C100 26.5667 100 26.1083 100 25.575C100 25.0417 100 24.5083 100 23.975C100 23.4417 100 22.975 100 22.575C100 22.0583 100.092 21.6167 100.275 21.25C100.475 20.8833 100.775 20.6083 101.175 20.425C101.592 20.225 102.117 20.125 102.75 20.125C103.15 20.125 103.583 20.125 104.05 20.125C104.533 20.125 105.025 20.125 105.525 20.125C106.025 20.125 106.492 20.125 106.925 20.125C107.375 20.125 107.758 20.125 108.075 20.125C108.408 20.125 108.675 20.2 108.875 20.35C109.075 20.5 109.208 20.6917 109.275 20.925C109.342 21.1417 109.342 21.3667 109.275 21.6C109.208 21.8167 109.075 22 108.875 22.15C108.675 22.3 108.408 22.375 108.075 22.375C107.758 22.375 107.342 22.375 106.825 22.375C106.325 22.375 105.8 22.375 105.25 22.375C104.717 22.375 104.217 22.375 103.75 22.375C103.283 22.375 102.942 22.375 102.725 22.375C102.342 22.375 101.983 22.3 101.65 22.15C101.333 22 101.05 21.7917 100.8 21.525C100.55 21.2417 100.35 20.9167 100.2 20.55C100.067 20.1833 100 19.7833 100 19.35C100 19.15 100 18.875 100 18.525C100 18.175 100 17.8167 100 17.45C100 17.0667 100 16.7167 100 16.4C100 15.65 100.1 15.025 100.3 14.525C100.517 14.0083 100.85 13.625 101.3 13.375C101.767 13.125 102.383 13 103.15 13C103.533 13 103.842 13 104.075 13C104.308 13 104.517 13 104.7 13C104.883 13 105.1 13 105.35 13C105.783 13 106.142 13 106.425 13C106.725 13 107.033 13 107.35 13C107.667 13 108.075 13 108.575 13C108.992 13 109.308 13.1167 109.525 13.35C109.742 13.5667 109.85 13.825 109.85 14.125C109.85 14.425 109.742 14.6917 109.525 14.925C109.308 15.1417 108.992 15.25 108.575 15.25ZM129.957 28.85C129.24 29.3 128.465 29.6417 127.632 29.875C126.799 30.0917 126.007 30.2 125.257 30.2C123.857 30.2167 122.574 29.875 121.407 29.175C120.24 28.475 119.307 27.475 118.607 26.175C117.924 24.8583 117.582 23.3 117.582 21.5C117.582 20.15 117.782 18.9417 118.182 17.875C118.599 16.7917 119.165 15.875 119.882 15.125C120.599 14.3583 121.424 13.7833 122.357 13.4C123.307 13 124.307 12.8 125.357 12.8C126.09 12.8 126.857 12.9 127.657 13.1C128.474 13.3 129.232 13.625 129.932 14.075C130.282 14.3083 130.482 14.575 130.532 14.875C130.599 15.175 130.549 15.45 130.382 15.7C130.232 15.95 130.007 16.1167 129.707 16.2C129.407 16.2833 129.082 16.2083 128.732 15.975C128.215 15.6417 127.657 15.4083 127.057 15.275C126.457 15.125 125.89 15.05 125.357 15.05C124.307 15.05 123.365 15.3083 122.532 15.825C121.699 16.3417 121.04 17.0833 120.557 18.05C120.074 19.0167 119.832 20.1667 119.832 21.5C119.832 22.5 119.965 23.4 120.232 24.2C120.499 25 120.874 25.6833 121.357 26.25C121.857 26.8 122.432 27.225 123.082 27.525C123.749 27.8083 124.474 27.95 125.257 27.95C125.79 27.95 126.365 27.875 126.982 27.725C127.615 27.5583 128.19 27.3 128.707 26.95C129.074 26.7167 129.407 26.6417 129.707 26.725C130.007 26.7917 130.232 26.95 130.382 27.2C130.549 27.45 130.607 27.7333 130.557 28.05C130.507 28.35 130.307 28.6167 129.957 28.85Z" fill="white"/>
</svg>
